[img]http://img.nattawat.org/images/7qxmeiu8v0axxqwp6s9g.jpg[/img]

[b]Sinopse:[/b]
When Blu, a domesticated macaw from small-town Minnesota, meets the fiercely independent Jewel, he takes off on an adventure to Rio de Janeiro with this bird of his dreams. 

[b]Cast:[/b]
Karen Disher  ...  Mother Bird (voice)  
Jason Fricchione  ...  Truck Driver (voice)  
Sofia Scarpa Saldanha  ...  Young Linda (voice)  
Leslie Mann  ...  Linda (voice)  
Kelly Keaton  ...  Bookstore Customer / Lady Tourist (voice)  
Jesse Eisenberg  ...  Blu (voice)  
Wanda Sykes  ...  Chloe (The Goose) (voice)  
Jane Lynch  ...  Alice (The Other Goose) (voice)  
Rodrigo Santoro  ...  Tulio / Soccer Announcer (voice)  
Gracinha Leporace  ...  Dr. Barbosa (voice)  
Jamie Foxx  ...  Nico (voice)  
Will i Am  ...  Pedro (voice) (as will.i.am)  
Phil Miler  ...  Aviary Intern / Waiter (voice)  
Anne Hathaway  ...  Jewel (voice)  
Bernardo de Paula  ...  Sylvio / Kipo (voice)  

[b]Director: Carlos Saldanha
Writers: Carlos Saldanha (story), Earl Richey Jones[/b]

[b]Link IMDB: [/b] http://www.imdb.com/title/tt1436562/

[b]screens:[/b]
[img][/img]
[img][/img]
[img][/img]
[img][/img]
[img][/img]
[img][/img]
[img][/img]



[b]Other Info:[/b]
[quote]General
Unique ID                        : 179550637738672836747582004680856683393 (0x871431E9E9A22A35818DB979975FC381)
Complete name                    : Rio 2011 R5 LiNE 720p x264-nsiervi\Rio.2011.R5.LiNE.720p.x264-nsiervi.mkv
Format                           : Matroska
File size                        : 2.02 GiB
Duration                         : 1h 32mn
Overall bit rate                 : 3 149 Kbps
Encoded date                     : UTC 2011-05-06 17:20:46
Writing application              : mkvmerge v4.7.0 ('Just Like You Imagined') built on Apr 21 2011 01:13:14
Writing library                  : libebml v1.2.0 + libmatroska v1.1.0

Video
ID                               : 1
Format                           : AVC
Format/Info                      : Advanced Video Codec
Format profile                   : High@L4.1
Format settings, CABAC           : Yes
Format settings, ReFrames        : 5 frames
Muxing mode                      : Header stripping
Codec ID                         : V_MPEG4/ISO/AVC
Duration                         : 1h 32mn
Bit rate                         : 2 957 Kbps
Width                            : 1 280 pixels
Height                           : 544 pixels
Display aspect ratio             : 2.35:1
Frame rate                       : 25.000 fps
Color space                      : YUV
Chroma subsampling               : 4:2:0
Bit depth                        : 8 bits
Scan type                        : Progressive
Bits/(Pixel*Frame)               : 0.170
Stream size                      : 1.86 GiB (92%)
Writing library                  : x264 core 114 r1924 08d04a4
Encoding settings                : cabac=1 / ref=5 / deblock=1:-1:-1 / analyse=0x3:0x113 / me=umh / subme=8 / psy=1 / psy_rd=1.00:0.00 / mixed_ref=1 / me_range=16 / chroma_me=1 / trellis=1 / 8x8dct=1 / cqm=0 / deadzone=21,11 / fast_pskip=1 / chroma_qp_offset=-2 / threads=12 / sliced_threads=0 / nr=0 / decimate=1 / interlaced=0 / constrained_intra=0 / bframes=3 / b_pyramid=2 / b_adapt=2 / b_bias=0 / direct=3 / weightb=1 / open_gop=0 / weightp=2 / keyint=250 / keyint_min=25 / scenecut=40 / intra_refresh=0 / rc_lookahead=50 / rc=2pass / mbtree=1 / bitrate=2957 / ratetol=1.0 / qcomp=0.60 / qpmin=0 / qpmax=69 / qpstep=4 / cplxblur=20.0 / qblur=0.5 / ip_ratio=1.40 / aq=1:1.00
Language                         : English

Audio
ID                               : 2
Format                           : AC-3
Format/Info                      : Audio Coding 3
Mode extension                   : CM (complete main)
Muxing mode                      : Header stripping
Codec ID                         : A_AC3
Duration                         : 1h 32mn
Bit rate mode                    : Constant
Bit rate                         : 192 Kbps
Channel(s)                       : 2 channels
Channel positions                : Front: L R
Sampling rate                    : 48.0 KHz
Bit depth                        : 16 bits
Compression mode                 : Lossy
Delay relative to video          : 302ms
Stream size                      : 126 MiB (6%)[/quote]